<!DOCTYPE svg PUBLIC "-//W3C//DTD SVG 20010904//EN" "http://www.w3.org/TR/2001/REC-SVG-20010904/DTD/svg10.dtd">
<svg version="1.0" xmlns="http://www.w3.org/2000/svg" width="484px" height="500px" viewBox="0 0 4840 5000" preserveAspectRatio="xMidYMid meet">
<g id="layer101" fill="#010000" stroke="none">
<path d="M1893 4984 c-481 -58 -916 -269 -1256 -609 -575 -575 -782 -1444 -527 -2215 175 -529 557 -969 1066 -1227 395 -201 824 -273 1284 -218 l55 7 33 -55 c39 -67 78 -102 157 -138 109 -50 243 -58 417 -22 l77 16 81 -74 c287 -261 586 -388 965 -409 86 -5 171 -15 199 -24 66 -22 112 -20 152 5 29 17 34 26 34 58 l0 38 101 18 c79 13 99 20 95 32 -3 8 -40 58 -82 113 l-76 98 51 76 c28 41 51 79 51 84 0 5 -29 29 -65 52 -69 45 -66 40 -95 170 -7 30 -14 58 -16 62 -3 4 -61 -20 -130 -53 -112 -53 -132 -59 -187 -59 -170 1 -378 75 -484 172 l-21 20 33 47 c86 121 130 252 123 367 -4 59 -11 83 -41 137 l-37 65 86 128 c190 284 315 626 354 969 13 116 13 364 0 480 -95 831 -657 1524 -1451 1789 -307 102 -639 137 -946 100z"/>
</g>
<g id="layer102" fill="#67082a" stroke="none">
<path d="M1906 4849 c-917 -125 -1607 -805 -1741 -1714 -22 -145 -22 -405 0 -550 65 -444 269 -849 585 -1165 292 -292 648 -477 1070 -556 114 -21 439 -30 566 -15 54 6 100 13 102 15 2 2 -15 32 -37 67 -62 98 -74 128 -78 204 -5 80 20 163 78 261 47 79 168 206 264 277 71 53 244 145 332 178 18 6 30 16 26 22 -3 5 -1 7 4 4 6 -4 35 -2 64 3 84 17 269 14 331 -4 97 -28 140 -64 203 -170 48 -80 60 -94 72 -84 29 24 145 210 202 325 280 559 282 1207 6 1768 -117 238 -251 422 -433 596 -292 279 -632 449 -1047 525 -106 19 -464 28 -569 13z"/>
<path d="M3225 1790 c-76 -11 -200 -56 -293 -105 -283 -150 -476 -378 -460 -543 4 -37 21 -75 77 -168 40 -65 77 -128 84 -139 72 -124 90 -145 146 -172 48 -24 68 -28 141 -28 84 0 206 20 216 36 2 4 -18 39 -45 76 -130 179 -144 227 -91 319 53 93 155 161 274 183 113 21 153 1 231 -118 35 -53 77 -111 93 -130 l29 -35 42 54 c24 30 57 81 74 114 26 51 31 73 32 132 l0 70 -118 197 c-127 213 -149 236 -237 256 -51 12 -121 12 -195 1z"/>
</g>
<g id="layer103" fill="#423728" stroke="none">
<path d="M3249 1141 c-93 -36 -179 -112 -179 -158 0 -20 99 -184 131 -217 18 -19 18 -19 13 2 -5 17 -2 20 14 16 13 -4 19 -15 20 -35 0 -20 -3 -27 -11 -22 -22 13 93 -115 157 -175 62 -58 197 -157 263 -195 30 -16 32 -16 36 0 4 15 5 14 6 -3 1 -16 18 -27 79 -52 111 -46 193 -73 203 -66 5 3 18 0 29 -6 17 -9 19 -8 13 7 -5 16 -4 15 9 -1 9 -11 24 -21 34 -22 11 -2 39 -6 64 -9 25 -3 55 -9 68 -12 14 -3 22 -1 22 8 0 10 3 11 8 3 4 -7 50 -14 112 -16 58 -3 112 -8 121 -12 13 -6 18 1 23 32 6 40 20 52 57 52 18 0 17 5 -13 45 -18 25 -37 51 -42 59 -6 9 4 32 32 74 l42 60 -35 21 c-25 14 -35 27 -35 45 0 35 -12 38 -62 16 -70 -31 -267 -28 -387 6 -44 13 -55 13 -62 2 -7 -10 -9 -9 -9 5 0 9 -5 17 -11 17 -5 0 -7 -4 -4 -10 3 -5 2 -10 -3 -10 -5 0 -12 9 -15 20 -3 11 -14 20 -24 20 -11 0 -46 16 -79 36 -32 20 -63 36 -67 37 -11 3 -69 52 -140 119 -33 32 -64 55 -69 52 -4 -3 -7 -1 -6 4 2 5 -27 49 -63 98 -36 49 -72 100 -79 113 -12 23 -14 23 -25 8 -11 -16 -13 -16 -19 -2 -3 9 1 18 10 22 13 5 13 8 -2 24 -21 24 -65 24 -125 0z m263 -345 c-9 -18 -22 -31 -29 -29 -15 6 -5 33 12 33 7 0 15 7 19 15 3 8 8 15 10 15 3 0 -2 -15 -12 -34z"/>
</g>
<g id="layer104" fill="#c91051" stroke="none">
<path d="M1906 4849 c-555 -76 -1033 -352 -1354 -782 -268 -359 -404 -764 -404 -1207 0 -390 98 -724 314 -1075 271 -442 695 -755 1198 -886 149 -38 247 -51 436 -56 165 -5 377 7 392 21 2 2 -8 23 -23 45 -25 40 -52 58 -104 67 -58 11 -124 63 -152 120 -89 184 129 477 487 657 140 70 318 126 328 103 3 -7 5 -7 5 2 1 6 9 12 19 12 15 0 15 -2 2 -11 -12 -9 -12 -10 3 -5 10 3 21 6 23 6 3 0 2 5 -2 12 -4 7 -3 8 4 4 6 -4 30 -2 52 4 63 17 279 15 341 -4 98 -28 141 -64 204 -170 48 -80 60 -94 72 -84 29 24 145 210 202 325 280 559 282 1207 6 1768 -117 238 -251 422 -433 596 -292 279 -632 449 -1047 525 -106 19 -464 28 -569 13z m496 -75 c62 -8 142 -22 178 -31 75 -17 283 -83 278 -88 -1 -2 -48 -11 -103 -20 -855 -145 -1568 -755 -1841 -1575 -78 -235 -113 -435 -121 -695 -10 -347 48 -662 183 -982 24 -58 44 -108 44 -110 0 -13 -109 76 -203 167 -179 172 -299 332 -400 535 -139 280 -196 506 -204 820 -9 349 52 625 207 935 100 200 213 353 381 515 307 297 687 480 1109 534 113 15 372 12 492 -5z"/>
<path d="M3233 1791 c-24 -4 -45 -10 -48 -13 -4 -3 16 -46 43 -95 54 -97 132 -249 132 -258 0 -3 -7 -5 -15 -5 -8 0 -43 -11 -77 -25 -35 -13 -69 -26 -75 -27 -14 -3 -169 313 -165 335 8 36 -150 -33 -221 -96 -18 -16 -27 -26 -21 -23 9 4 84 -140 165 -318 11 -23 5 -31 -88 -123 -97 -95 -173 -203 -188 -265 -4 -15 -13 -32 -21 -38 -14 -13 -14 -15 39 -102 43 -71 114 -103 227 -103 84 0 206 20 216 36 2 4 -18 39 -45 76 -130 179 -144 227 -91 319 53 93 155 161 274 183 113 21 153 1 231 -118 35 -53 77 -111 93 -130 l29 -35 42 54 c24 30 57 81 74 114 26 51 31 73 32 132 l0 70 -118 197 c-127 213 -149 236 -237 256 -50 12 -123 12 -187 2z"/>
</g>
<g id="layer105" fill="#ccab7f" stroke="none">
<path d="M3249 1141 c-94 -37 -179 -112 -179 -159 0 -26 118 -204 131 -197 5 4 9 17 9 30 0 54 51 184 95 245 25 33 52 63 61 67 24 9 -4 33 -40 33 -17 -1 -52 -9 -77 -19z"/>
<path d="M3363 1058 c-57 -61 -97 -164 -109 -286 l-6 -70 88 -88 88 -89 7 90 c8 104 37 204 74 258 15 21 25 41 23 45 -8 18 -122 172 -128 172 -3 0 -20 -15 -37 -32z"/>
<path d="M3542 848 c-41 -69 -56 -138 -57 -257 l0 -113 32 -27 c34 -28 127 -86 156 -97 16 -6 17 -2 10 37 -14 75 -7 220 11 269 10 25 19 52 22 60 2 9 -26 43 -75 88 l-79 72 -20 -32z"/>
<path d="M3752 683 c-15 -29 -32 -120 -32 -171 1 -68 25 -181 42 -199 15 -14 176 -73 202 -73 11 0 8 18 -12 73 -26 74 -36 204 -20 272 7 29 5 31 -74 70 -45 22 -84 41 -89 43 -4 2 -12 -5 -17 -15z"/>
<path d="M3979 573 c-22 -59 -3 -205 40 -305 21 -50 24 -52 136 -64 55 -6 58 -5 40 9 -22 17 -21 18 15 34 l25 10 -33 17 c-34 18 -36 27 -16 79 3 10 -5 21 -25 33 -37 22 -38 30 -10 60 14 15 22 37 23 66 l2 44 -94 20 -94 21 -9 -24z"/>
</g>
<g id="layer106" fill="#fbebf1" stroke="none">
<path d="M3283 3556 c-153 -50 -261 -186 -270 -340 -4 -63 -1 -77 24 -126 62 -122 211 -143 351 -50 190 128 236 388 86 493 -49 34 -128 44 -191 23z"/>
<path d="M3343 2899 c-211 -36 -410 -215 -491 -441 -35 -100 -37 -245 -3 -330 29 -76 98 -150 169 -185 51 -25 68 -28 157 -27 81 0 112 5 160 24 212 83 379 280 422 499 30 149 -5 281 -99 373 -76 74 -197 107 -315 87z"/>
</g>


</svg>